<svg width="1024" height="201" viewBox="0 0 1024 201" fill="none" xmlns="http://www.w3.org/2000/svg">
<path d="M89.4557 48.5425C88.7702 43.5664 84.2892 39.974 79.2623 39.974H78.7673C73.7404 39.974 69.2594 36.3942 68.5739 31.4054C67.7234 25.2234 72.4963 19.9807 78.4625 19.9807H79.237C84.2258 19.9807 88.6941 16.4644 89.443 11.5263C90.3697 5.35696 85.6095 0 79.5671 0H46.1432C41.1544 0 36.6861 3.51633 35.9372 8.45436C35.0105 14.6237 39.7708 19.9807 45.8132 19.9807H44.29H45.1785C50.7004 19.9807 55.1689 24.449 55.1689 29.971V30.2502C55.0165 35.6579 50.5862 39.9613 45.1785 39.9613H24.7029C19.7141 39.9613 15.2457 43.4775 14.4967 48.4156C13.57 54.5849 18.3304 59.9419 24.3728 59.9419H24.3094C30.3518 59.9419 35.112 65.2988 34.1854 71.4682C33.4491 76.4062 28.9681 79.9225 23.9793 79.9225H10.3077C9.21596 79.9225 8.14965 80.1002 7.13411 80.4176C5.82661 80.7984 4.64603 81.4458 3.61781 82.2963C3.60511 82.2963 3.59244 82.3217 3.56706 82.3344C3.37664 82.4994 3.18622 82.6644 2.9958 82.8421C2.81809 83.0071 2.66574 83.1849 2.50071 83.3626C2.46263 83.4007 2.4373 83.426 2.39922 83.4641C1.20596 84.8224 0.36814 86.498 0.0888684 88.3895C0.0507859 88.6053 0.0508014 88.8211 0.0254131 89.0369C0.0254131 89.1384 0 89.2527 0 89.3542C0 89.5573 0 89.7605 0 89.9509C0 90.154 0 90.3571 0 90.5475C0 90.649 0.0254131 90.7633 0.0254131 90.8648C0.0381073 91.0806 0.0507859 91.2964 0.0888684 91.5122C0.36814 93.4037 1.20596 95.0793 2.39922 96.4376C2.4246 96.4757 2.46263 96.5011 2.50071 96.5392C2.66574 96.7169 2.83078 96.8946 2.9958 97.0596C3.17352 97.2373 3.36395 97.4024 3.56706 97.5674C3.57975 97.5801 3.59242 97.5927 3.61781 97.6054C4.63334 98.4432 5.82661 99.0907 7.13411 99.4715C8.14965 99.7889 9.20326 99.9665 10.3077 99.9665H23.9793C28.9681 99.9665 33.4364 103.483 34.1854 108.421C35.112 114.59 30.3518 119.947 24.3094 119.947H24.3728C18.3304 119.947 13.57 125.304 14.4967 131.473C15.233 136.411 19.7141 139.928 24.7029 139.928H45.1785C50.5862 139.928 55.0165 144.231 55.1689 149.639V149.918C55.1689 155.44 50.7004 159.908 45.1785 159.908H44.29H45.8132C39.7708 159.908 35.0105 165.265 35.9372 171.435C36.6734 176.373 41.1544 179.889 46.1432 179.889H79.5671C85.6095 179.889 90.3697 174.532 89.443 168.363C88.7068 163.425 84.2258 159.908 79.237 159.908H78.4625C72.4963 159.908 67.7234 154.666 68.5739 148.484C69.2594 143.508 73.7404 139.915 78.7673 139.915H79.2623C84.2892 139.915 88.7702 136.335 89.4557 131.347C90.3062 125.164 85.5333 119.922 79.5671 119.922H69.0182H63.9151C58.9263 119.922 54.458 116.405 53.709 111.467C52.7823 105.298 57.5426 99.9412 63.585 99.9412H79.2877C79.7828 99.9412 80.2652 99.8904 80.7348 99.8269C85.6856 99.3826 89.5574 95.2189 89.5574 90.154C89.5574 90.0651 89.5574 89.9889 89.5574 89.9128C89.5574 89.8366 89.5574 89.7477 89.5574 89.6716C89.5574 84.6066 85.6729 80.4556 80.7348 79.9986C80.2652 79.9352 79.7828 79.8844 79.2877 79.8844H63.585C57.5426 79.8844 52.7823 74.5275 53.709 68.3581C54.4453 63.4201 58.9263 59.9038 63.9151 59.9038H69.0182H79.5671C85.5333 59.9038 90.3062 54.6611 89.4557 48.479V48.5425Z" fill="white"/>
<path d="M193.243 110.655C193.243 110.452 193.243 110.261 193.243 110.058C193.243 109.957 193.218 109.843 193.218 109.741C193.205 109.525 193.192 109.309 193.154 109.094C192.875 107.202 192.037 105.526 190.844 104.168C190.806 104.13 190.78 104.092 190.742 104.067C190.577 103.889 190.425 103.711 190.247 103.546C190.07 103.368 189.879 103.204 189.676 103.038C189.663 103.026 189.651 103.013 189.625 103C188.61 102.163 187.416 101.515 186.109 101.134C185.093 100.817 184.04 100.639 182.935 100.639H169.264C164.275 100.639 159.807 97.1229 159.058 92.1849C158.131 86.0155 162.891 80.6587 168.934 80.6587H168.87C174.913 80.6587 179.673 75.3017 178.746 69.1323C178.01 64.1943 173.529 60.6781 168.54 60.6781H148.065C142.657 60.6781 138.227 56.3747 138.074 50.967V50.6877C138.074 45.1657 142.543 40.6974 148.065 40.6974H148.953H147.43C153.472 40.6974 158.233 35.3405 157.306 29.1712C156.57 24.2331 152.089 20.7168 147.1 20.7168H113.676C107.634 20.7168 102.873 26.0738 103.8 32.2431C104.536 37.1811 109.017 40.6974 114.006 40.6974H114.781C120.747 40.6974 125.52 45.9401 124.669 52.1221C123.984 57.0982 119.503 60.6907 114.476 60.6907H113.981C108.954 60.6907 104.473 64.2705 103.787 69.2593C102.937 75.4413 107.71 80.684 113.676 80.684H124.225H129.328C134.317 80.684 138.785 84.2003 139.534 89.1384C140.461 95.3077 135.701 100.665 129.658 100.665H113.955C113.46 100.665 112.978 100.715 112.508 100.779C107.558 101.223 103.686 105.387 103.686 110.452C103.686 110.541 103.686 110.617 103.686 110.693C103.686 110.769 103.686 110.858 103.686 110.934C103.686 115.999 107.57 120.15 112.508 120.607C112.978 120.671 113.46 120.721 113.955 120.721H129.658C135.701 120.721 140.461 126.078 139.534 132.248C138.798 137.186 134.317 140.702 129.328 140.702H124.225H113.676C107.71 140.702 102.937 145.945 103.787 152.127C104.473 157.103 108.954 160.695 113.981 160.695H114.476C119.503 160.695 123.984 164.275 124.669 169.264C125.52 175.446 120.747 180.689 114.781 180.689H114.006C109.017 180.689 104.549 184.205 103.8 189.143C102.873 195.312 107.634 200.669 113.676 200.669H147.1C152.089 200.669 156.557 197.153 157.306 192.215C158.233 186.046 153.472 180.689 147.43 180.689H148.953H148.065C142.543 180.689 138.074 176.22 138.074 170.698V170.419C138.227 165.011 142.657 160.708 148.065 160.708H168.54C173.529 160.708 177.997 157.192 178.746 152.254C179.673 146.084 174.913 140.727 168.87 140.727H168.934C162.891 140.727 158.131 135.37 159.058 129.201C159.794 124.263 164.275 120.747 169.264 120.747H182.935C184.027 120.747 185.093 120.569 186.109 120.252C187.416 119.871 188.597 119.223 189.625 118.386C189.638 118.373 189.663 118.36 189.676 118.348C189.867 118.183 190.057 118.018 190.247 117.84C190.425 117.675 190.59 117.497 190.742 117.319C190.768 117.281 190.806 117.256 190.844 117.218C192.037 115.86 192.875 114.184 193.154 112.292C193.192 112.077 193.192 111.861 193.218 111.645C193.218 111.544 193.243 111.429 193.243 111.328C193.243 111.125 193.243 110.922 193.243 110.731V110.655Z" fill="white"/>
<path d="M382.005 166.687C375.684 166.687 369.92 165.57 364.716 163.336C359.511 161.102 355.424 157.877 352.441 153.676C349.47 149.461 347.985 144.32 347.985 138.24C347.985 132.159 349.47 126.967 352.441 122.994C355.411 118.906 359.511 115.872 364.716 113.879C369.92 111.772 375.747 110.719 382.196 110.719H412.865V104.029C412.865 97.5802 410.948 92.5025 407.102 88.7831C403.382 85.0637 397.809 83.2104 390.371 83.2104C382.932 83.2104 377.359 85.013 373.272 88.6055C369.184 92.071 366.391 96.7804 364.906 102.734L351.146 98.2784C352.631 93.2007 354.992 88.6054 358.216 84.5179C361.441 80.3034 365.719 76.9522 371.038 74.4768C376.496 71.8745 382.995 70.567 390.561 70.567C402.214 70.567 411.253 73.6009 417.701 79.6814C424.15 85.635 427.374 94.0512 427.374 104.968V146.047C427.374 149.766 429.113 151.619 432.579 151.619H440.944V164.072H428.11C424.023 164.072 420.735 162.955 418.26 160.721C415.784 158.373 414.54 155.262 414.54 151.429V150.502H412.306C410.948 152.851 409.082 155.339 406.733 157.941C404.499 160.416 401.402 162.46 397.441 164.072C393.481 165.811 388.327 166.675 382.018 166.675L382.005 166.687ZM383.681 154.044C392.351 154.044 399.358 151.505 404.69 146.427C410.148 141.223 412.865 133.974 412.865 124.682V122.638H382.754C376.928 122.638 372.091 123.933 368.257 126.536C364.538 129.011 362.685 132.794 362.685 137.871C362.685 142.949 364.602 146.922 368.448 149.766C372.408 152.622 377.499 154.044 383.694 154.044H383.681ZM486.516 166.687C477.719 166.687 469.785 164.834 462.727 161.114C455.784 157.268 450.274 151.822 446.187 144.752C442.226 137.694 440.233 129.328 440.233 119.655V117.612C440.233 107.824 442.214 99.4589 446.187 92.5152C450.274 85.4572 455.796 80.0622 462.727 76.3429C469.798 72.4965 477.719 70.5797 486.516 70.5797C495.313 70.5797 502.562 72.1919 508.642 75.4162C514.837 78.6405 519.673 82.9184 523.139 88.2373C526.731 93.5688 529.029 99.2685 530.019 105.336L515.7 108.307C515.078 103.851 513.593 99.7509 511.232 96.0315C508.998 92.3121 505.837 89.3416 501.749 87.1075C497.662 84.8733 492.635 83.7563 486.694 83.7563C480.753 83.7563 475.168 85.1145 470.331 87.8438C465.622 90.573 461.839 94.4701 458.995 99.5604C456.266 104.638 454.908 110.719 454.908 117.777V119.452C454.908 126.51 456.266 132.591 458.995 137.668C461.851 142.746 465.622 146.656 470.331 149.385C475.168 152.114 480.613 153.473 486.694 153.473C495.745 153.473 502.625 151.111 507.335 146.402C512.171 141.692 515.142 135.866 516.259 128.922L530.755 132.083C529.397 138.037 526.909 143.673 523.317 149.004C519.724 154.336 514.824 158.614 508.63 161.825C502.562 165.05 495.186 166.662 486.504 166.662L486.516 166.687ZM544.198 164.085V33.957H558.886V110.554H561.488L603.125 73.182H623.575L573.192 117.421L625.06 164.085H604.8L561.488 124.492H558.886V164.085H544.198ZM686.97 166.687C677.551 166.687 670.175 164.885 664.844 161.292C659.639 157.7 655.856 153.612 653.508 149.03H650.906V164.085H636.587V33.957H651.274V87.501H653.876C655.361 84.6448 657.468 81.9917 660.198 79.5037C662.927 76.9014 666.456 74.7942 670.797 73.182C675.266 71.4429 680.648 70.5797 686.97 70.5797C694.904 70.5797 702.089 72.4965 708.537 76.3429C715.113 80.0622 720.317 85.4572 724.151 92.5152C727.997 99.4589 729.914 107.761 729.914 117.421V119.833C729.914 129.493 727.934 137.859 723.96 144.929C720.114 152 714.91 157.382 708.347 161.102C701.898 164.821 694.777 166.675 686.97 166.675V166.687ZM683.073 153.663C692.492 153.663 700.108 150.693 705.935 144.739C711.888 138.671 714.859 130.242 714.859 119.452V117.777C714.859 106.999 711.888 98.6338 705.935 92.6802C700.108 86.6124 692.492 83.5658 683.073 83.5658C673.654 83.5658 666.088 86.5997 660.02 92.6802C654.066 98.6338 651.096 106.999 651.096 117.777V119.452C651.096 130.23 654.066 138.658 660.02 144.739C666.088 150.693 673.78 153.663 683.073 153.663ZM786.797 166.687C777.631 166.687 769.507 164.77 762.449 160.924C755.506 157.078 750.06 151.695 746.086 144.752C742.24 137.694 740.323 129.379 740.323 119.846V117.434C740.323 108.015 742.24 99.7763 746.086 92.7056C750.047 85.6477 755.506 80.1892 762.449 76.3429C769.507 72.4965 777.631 70.5797 786.797 70.5797C795.962 70.5797 804.023 72.4965 810.966 76.3429C818.037 80.1892 823.483 85.635 827.329 92.7056C831.29 99.7636 833.283 108.015 833.283 117.434V119.846C833.283 129.392 831.302 137.694 827.329 144.752C823.483 151.695 818.037 157.078 810.966 160.924C804.023 164.77 795.974 166.687 786.797 166.687ZM786.797 153.485C796.457 153.485 804.15 150.451 809.849 144.371C815.676 138.176 818.583 129.874 818.583 119.465V117.789C818.583 107.38 815.676 99.1415 809.849 93.061C804.15 86.8663 796.47 83.769 786.797 83.769C777.124 83.769 769.571 86.8663 763.744 93.061C757.917 99.1289 755.01 107.38 755.01 117.789V119.465C755.01 129.874 757.917 138.176 763.744 144.371C769.571 150.439 777.251 153.485 786.797 153.485ZM842.359 164.085V73.182H856.678V88.6055H859.28C861.261 84.2641 864.612 80.3669 869.321 76.8887C874.158 73.2962 881.216 71.4937 890.508 71.4937C897.325 71.4937 903.393 72.9154 908.724 75.7716C914.183 78.6278 918.511 82.8296 921.736 88.415C924.96 93.9877 926.572 100.868 926.572 109.056V164.085H911.885V110.173C911.885 101.122 909.587 94.559 905.005 90.4715C900.549 86.3839 894.468 84.3402 886.789 84.3402C877.991 84.3402 870.807 87.1963 865.221 92.896C859.763 98.5957 857.046 107.088 857.046 118.361V164.098H842.359V164.085ZM981.259 166.687C972.093 166.687 964.032 164.77 957.089 160.924C950.145 156.963 944.763 151.442 940.916 144.384C937.07 137.326 935.153 129.138 935.153 119.846V117.612C935.153 108.193 937.07 99.954 940.916 92.8834C944.763 85.8254 950.082 80.3669 956.898 76.5206C963.715 72.56 971.522 70.567 980.319 70.567C989.116 70.567 996.428 72.4204 1003 76.1398C1009.57 79.7322 1014.72 84.9368 1018.43 91.7536C1022.15 98.5703 1024 106.568 1024 115.733V122.423H949.828C950.196 132.21 953.357 139.903 959.31 145.475C965.264 150.934 972.69 153.65 981.614 153.65C989.421 153.65 995.438 151.848 999.652 148.255C1003.87 144.663 1007.09 140.385 1009.31 135.421L1021.96 141.553C1020.09 145.399 1017.49 149.233 1014.15 153.079C1010.92 156.925 1006.65 160.15 1001.33 162.752C996.123 165.354 989.434 166.649 981.246 166.649L981.259 166.687ZM950.018 110.35H1009.13C1008.64 101.922 1005.73 95.3587 1000.4 90.6492C995.197 85.9397 988.507 83.5912 980.319 83.5912C972.131 83.5912 965.2 85.9397 959.869 90.6492C954.537 95.3587 951.262 101.922 950.018 110.35Z" fill="white"/>
<path d="M334.732 113.143C332.498 109.183 329.718 106.136 326.367 104.029C323.015 101.795 319.804 100.309 316.706 99.5732V96.9709C319.804 95.9807 322.965 94.4321 326.189 92.3248C329.413 90.0907 332.206 87.0568 334.554 83.2104C336.903 79.2499 338.083 74.2229 338.083 68.1551V66.6699C338.083 60.107 336.408 54.3947 333.069 49.5709C329.845 44.6075 325.262 40.7738 319.309 38.0446C313.482 35.3153 306.792 33.957 299.227 33.957H233.979V47.8953H252.195V150.147H233.979V164.085H299.049C306.615 164.085 313.304 162.777 319.131 160.175C325.085 157.446 329.731 153.549 333.069 148.458C336.535 143.254 338.274 137.123 338.274 130.052V128.186C338.274 122.118 337.093 117.091 334.745 113.131L334.732 113.143ZM267.808 48.0729H297.919C305.472 48.0729 311.426 49.9898 315.767 53.8361C320.223 57.5555 322.457 62.5697 322.457 68.8914V70.7448C322.457 76.9395 320.223 81.9664 315.767 85.8C311.299 89.5194 305.358 91.3728 297.919 91.3728H267.808V48.0603V48.0729ZM322.647 128.567C322.647 135.13 320.477 140.334 316.148 144.18C311.807 148.027 305.548 149.944 297.373 149.944H267.821V105.514H297.373C305.548 105.514 311.807 107.431 316.148 111.277C320.489 115.124 322.647 120.328 322.647 126.891V128.567Z" fill="white"/>
</svg>
