<svg width="459" height="476" viewBox="0 0 459 476" fill="none" xmlns="http://www.w3.org/2000/svg">
<path d="M211.944 115.01C210.32 103.22 199.704 94.709 187.793 94.709H186.621C174.711 94.709 164.094 86.2276 162.47 74.4078C160.455 59.7609 171.763 47.3396 185.899 47.3396H187.734C199.553 47.3396 210.14 39.0084 211.914 27.3089C214.11 12.6921 202.832 0 188.516 0H109.326C97.5058 0 86.9192 8.33112 85.1447 20.0306C82.9492 34.6475 94.2276 47.3396 108.544 47.3396H104.935H107.04C120.123 47.3396 130.71 57.9262 130.71 71.0092V71.6708C130.349 84.4831 119.852 94.6789 107.04 94.6789H58.5277C46.7079 94.6789 36.1211 103.01 34.3466 114.709C32.151 129.326 43.4296 142.018 57.7457 142.018H57.5953C71.9114 142.018 83.1898 154.71 80.9943 169.327C79.2499 181.027 68.6331 189.358 56.8133 189.358H24.4216C21.8351 189.358 19.3087 189.779 16.9026 190.531C13.8048 191.433 11.0077 192.967 8.57155 194.982C8.54147 194.982 8.51146 195.042 8.45131 195.072C8.00017 195.463 7.549 195.854 7.09786 196.275C6.6768 196.666 6.31584 197.087 5.92486 197.508C5.83463 197.599 5.77461 197.659 5.68438 197.749C2.85725 200.967 0.872222 204.937 0.210553 209.418C0.120325 209.93 0.120362 210.441 0.0602105 210.952C0.0602105 211.193 0 211.463 0 211.704C0 212.185 0 212.667 0 213.118C0 213.599 0 214.08 0 214.531C0 214.772 0.0602105 215.042 0.0602105 215.283C0.0902863 215.794 0.120325 216.306 0.210553 216.817C0.872222 221.298 2.85725 225.268 5.68438 228.486C5.74453 228.577 5.83463 228.637 5.92486 228.727C6.31584 229.148 6.70687 229.569 7.09786 229.96C7.51892 230.381 7.97009 230.772 8.45131 231.163C8.48138 231.193 8.51139 231.223 8.57155 231.253C10.9776 233.238 13.8048 234.772 16.9026 235.675C19.3087 236.426 21.805 236.847 24.4216 236.847H56.8133C68.6331 236.847 79.2198 245.178 80.9943 256.878C83.1898 271.495 71.9114 284.187 57.5953 284.187H57.7457C43.4296 284.187 32.151 296.879 34.3466 311.496C36.091 323.195 46.7079 331.526 58.5277 331.526H107.04C119.852 331.526 130.349 341.722 130.71 354.534V355.196C130.71 368.279 120.123 378.866 107.04 378.866H104.935H108.544C94.2276 378.866 82.9492 391.558 85.1447 406.175C86.8891 417.874 97.5058 426.205 109.326 426.205H188.516C202.832 426.205 214.11 413.513 211.914 398.896C210.17 387.197 199.553 378.866 187.734 378.866H185.899C171.763 378.866 160.455 366.444 162.47 351.797C164.094 340.008 174.711 331.496 186.621 331.496H187.793C199.704 331.496 210.32 323.015 211.944 311.195C213.96 296.548 202.651 284.127 188.516 284.127H163.522H151.432C139.612 284.127 129.025 275.796 127.251 264.096C125.055 249.479 136.334 236.787 150.65 236.787H187.854C189.027 236.787 190.17 236.667 191.282 236.517C203.012 235.464 212.185 225.599 212.185 213.599C212.185 213.388 212.185 213.208 212.185 213.027C212.185 212.847 212.185 212.636 212.185 212.456C212.185 200.456 202.982 190.621 191.282 189.538C190.17 189.388 189.027 189.267 187.854 189.267H150.65C136.334 189.267 125.055 176.575 127.251 161.959C128.995 150.259 139.612 141.928 151.432 141.928H163.522H188.516C202.651 141.928 213.96 129.507 211.944 114.86V115.01Z" fill="white"/>
<path d="M458.089 262.172C458.089 261.69 458.089 261.239 458.089 260.758C458.089 260.517 458.029 260.247 458.029 260.006C457.999 259.495 457.969 258.983 457.879 258.472C457.217 253.991 455.232 250.021 452.405 246.803C452.315 246.712 452.255 246.622 452.164 246.562C451.773 246.141 451.412 245.72 450.991 245.329C450.57 244.908 450.119 244.517 449.638 244.126C449.608 244.096 449.578 244.066 449.518 244.036C447.112 242.051 444.284 240.517 441.187 239.615C438.781 238.863 436.284 238.442 433.668 238.442H401.276C389.456 238.442 378.87 230.111 377.095 218.411C374.9 203.794 386.178 191.102 400.494 191.102H400.344C414.66 191.102 425.938 178.41 423.742 163.793C421.998 152.094 411.382 143.763 399.562 143.763H351.049C338.237 143.763 327.741 133.567 327.38 120.755V120.093C327.38 107.01 337.966 96.4234 351.049 96.4234H353.155H349.546C363.862 96.4234 375.14 83.7315 372.945 69.1146C371.2 57.4151 360.583 49.084 348.764 49.084H269.574C255.258 49.084 243.979 61.776 246.175 76.3929C247.919 88.0924 258.536 96.4234 270.356 96.4234H272.191C286.326 96.4234 297.634 108.845 295.619 123.492C293.995 135.281 283.379 143.793 271.469 143.793H270.296C258.386 143.793 247.769 152.274 246.145 164.094C244.13 178.741 255.438 191.162 269.574 191.162H294.567H306.657C318.477 191.162 329.064 199.493 330.838 211.193C333.034 225.81 321.755 238.502 307.439 238.502H270.236C269.063 238.502 267.92 238.622 266.807 238.772C255.077 239.825 245.904 249.69 245.904 261.69C245.904 261.901 245.904 262.081 245.904 262.262C245.904 262.442 245.904 262.653 245.904 262.833C245.904 274.833 255.107 284.668 266.807 285.751C267.92 285.901 269.063 286.022 270.236 286.022H307.439C321.755 286.022 333.034 298.714 330.838 313.33C329.094 325.03 318.477 333.361 306.657 333.361H294.567H269.574C255.438 333.361 244.13 345.782 246.145 360.429C247.769 372.219 258.386 380.73 270.296 380.73H271.469C283.379 380.73 293.995 389.212 295.619 401.032C297.634 415.679 286.326 428.1 272.191 428.1H270.356C258.536 428.1 247.949 436.431 246.175 448.13C243.979 462.747 255.258 475.439 269.574 475.439H348.764C360.583 475.439 371.17 467.108 372.945 455.409C375.14 440.792 363.862 428.1 349.546 428.1H353.155H351.049C337.966 428.1 327.38 417.513 327.38 404.43V403.769C327.741 390.956 338.237 380.761 351.049 380.761H399.562C411.382 380.761 421.968 372.429 423.742 360.73C425.938 346.113 414.66 333.421 400.344 333.421H400.494C386.178 333.421 374.9 320.729 377.095 306.112C378.84 294.413 389.456 286.082 401.276 286.082H433.668C436.254 286.082 438.781 285.661 441.187 284.909C444.284 284.007 447.082 282.473 449.518 280.488C449.548 280.458 449.608 280.428 449.638 280.397C450.089 280.007 450.54 279.615 450.991 279.194C451.412 278.803 451.803 278.382 452.164 277.961C452.225 277.871 452.315 277.811 452.405 277.721C455.232 274.503 457.217 270.533 457.879 266.051C457.969 265.54 457.969 265.029 458.029 264.517C458.029 264.277 458.089 264.006 458.089 263.765C458.089 263.284 458.089 262.803 458.089 262.352V262.172Z" fill="white"/>
</svg>
